<?xml version="1.0" encoding="utf-8"?>
<!-- Generator: Adobe Illustrator 22.0.1, SVG Export Plug-In . SVG Version: 6.00 Build 0)  -->
<svg version="1.1" id="Layer_1" xmlns="http://www.w3.org/2000/svg" xmlns:xlink="http://www.w3.org/1999/xlink" x="0px" y="0px"
	 viewBox="0 0 28 17" style="enable-background:new 0 0 28 17;" xml:space="preserve">
<style type="text/css">
	.st0{fill:#FC2C1D;}
	.st1{fill:none;stroke:#FC2C1D;}
</style>
<title>Eye</title>
<desc>Created with Sketch.</desc>
<g id="COLOR-TEST">
	<g id="Homepage" transform="translate(-1213.000000, -521.000000)">
		<g id="Latest-Icons" transform="translate(1189.000000, 522.000000)">
			<g id="Eye" transform="translate(24.000000, 0.000000)">
				<path id="Fill-1" class="st0" d="M13.6,3.5c-2.2,0-4,1.8-4,4s1.8,4,4,4s4-1.8,4-4S15.8,3.5,13.6,3.5 M13.6,4.5c1.7,0,3,1.3,3,3
					s-1.3,3-3,3s-3-1.3-3-3S12,4.5,13.6,4.5"/>
				<path id="Stroke-3" class="st1" d="M0.6,7.5c0,0,5.5-7,13-7s13,7,13,7s-5.5,7-13,7S0.6,7.5,0.6,7.5z"/>
			</g>
		</g>
	</g>
</g>
</svg>
